/* XPM */
static char *_47_68b6766904370de1f9b2ce05a5c610be284c4f47848f7c2d23ae461c8e98a786[] = {
/* columns rows colors chars-per-pixel */
"64 64 88 1 ",
"  c #7C7C7C",
". c gray55",
"X c gray44",
"o c #989898",
"O c #646464",
"+ c #D0D0D0",
"@ c #ECECEC",
"# c gray66",
"$ c gainsboro",
"% c #B4B4B4",
"& c #E4D800",
"* c gray33",
"= c black",
"- c #FCF400",
"; c #FCF420",
": c #FCF440",
"> c #FCF85C",
", c #FCFC7C",
"< c #FCFC9C",
"1 c #484848",
"2 c #FCFCB8",
"3 c #FCFCD8",
"4 c gray22",
"5 c #FCB080",
"6 c #FCE0D0",
"7 c #FCE8DC",
"8 c #FCCCB0",
"9 c #FCD4BC",
"0 c #FCD8C4",
"q c #FCC4A4",
"w c #FCBC9C",
"e c #B4AC00",
"r c #FCB890",
"t c #CCC400",
"y c #2C2C2C",
"u c #FC9C60",
"i c #202020",
"p c #FCA470",
"a c #BC7848",
"s c #F0945C",
"d c #B47044",
"f c #A86840",
"g c #DC8854",
"h c #C0C0C0",
"j c #D08050",
"k c #9C6038",
"l c #885830",
"z c #744C28",
"x c #80502C",
"c c #9C9C00",
"v c #848400",
"b c #5C4020",
"n c #706C00",
"m c #40FC40",
"M c #60FC5C",
"N c #80FC7C",
"B c #9CFC9C",
"V c #B8FCFC",
"C c #543C1C",
"Z c #04C800",
"A c #20FC20",
"S c #483818",
"D c #EC0000",
"F c #00FC00",
"G c #403018",
"H c #D40000",
"J c #FC5C5C",
"K c #04BC00",
"L c #382C14",
"P c #FC4040",
"I c #04B000",
"U c #28200C",
"Y c #B00000",
"T c #04A400",
"R c #BC0000",
"E c #049800",
"W c #A80000",
"Q c #048800",
"! c #980000",
"~ c #047C00",
"^ c #880000",
"/ c #047000",
"( c #7C0000",
") c #046400",
"_ c #045800",
"` c #044C00",
"' c #044000",
"] c white",
/* pixels */
"      ........ . .         .   .....         .   .. .         . ",
". ... ...... . .    .... .   .....     ... .   .. . ... ..... . ",
".......XXXXXXXXXXXXXXXXXXXXXXXXXXXXXXXXXXXXXXXXXXXXXXXXX........",
".o..o..XOo+@@@@@.@@@@.@@@@.@@@@.@@@@.@@@@.@@@@.@@@@@+oX ....o..o",
"o#o.o..XOo+@++++ ++++ ++++ ++++ ++++ $$$$ $$$$ $$$+@+oO o.o.o..#",
"#%%ooooXOo+&&&&&*&&&&*&&&&*&&&&*&&&&*&&&&*&&&&*&&&&&+oO %o%ooooo",
"#%#%o#oXOo+&=======================================&+oO #%#%o#o#",
"#%#%o##XO* .=&-=;:>,<<<1<2<<<<<<<=,222333333,==333=. *O #%#%o##%",
"#%%%o#%XOo+&=&-=;:>,<<<1<22222222=22222322===22333=&+oO %%%%o#%%",
"#%#%%#%XOo+&=&-=<<<<,22==============22===2222232==&+oO #%#%%#%%",
"#%#%%%#XOo+&====,<<<<<<====4444441111==,<2222322=3=&+oO #%#%%%#%",
"%%%%%%#XOo+&=&>========================,,<<2222=33=&+oO %%%%%%#%",
"%%%%%#%XO* .=&>=>>>>>>=555567=41**=*OXX1,,<<<<=333=. *O %%%%%#%%",
"#%%%%%%XOo+&=&;=::::::=890000=41**=*OOXX1,,<,=3333=&+oO %%%%%%%%",
"%%%%%%#XOo+&=&;=;;;;;=qq89900=44**=***OO=1,,=32323=&+oO %%%%%%#%",
"%%%%%%%XOo+&=&-=-----=wwq8999=4411=1111=O1e=22222==&+oO %%%%%%%%",
"#%%%%%#XOo+&=&&=&&&&=5rwwq888=4444=444=**1=<<2222==&+oO %%%%%%#%",
"%%%%%%%XO* .=tt=================44=yy=41*1>><<<2=&=. *O %%%%%%%%",
"%%%%%%%XOo+&=ee=tt>>>===4uurww=5=1=i=iy411>><<<<=>=&+oO %%%%%%%%",
"%%#%%#%XOo+&====;;;>=r=4uu5rww=pp=====iyy1>>><<=&;=&+oO #%#%%#%%",
"%%%%%%%XOo+&=t&=-;;=5p=uup5rr=uuuuu=a=iiy1=>>>>=:-=&+oO %%%%%%%%",
"%%%%%%%XOo+&=t&=--=ppp=uup555=ssss=dd=ii1>&=>>=&--=&+oO %%%%%%%%",
"%%%%%%%XO* .=t&=--=uuu=sup55=ssss=fff=i1>,,&=>=---=. *O %%%%%%%%",
"%%oo%%%XOo$&=t&========suppp=ggg=======-:>>,&======&$oO oooo%%%%",
"o%hhoo%XOo$&=et=&---=y=suuu=jjj=kk=ajd=--:>>>=;;;;=&$oO hhhhoo%%",
"h%%hhhoXOo$&=et=&&-&===ssss=dd=ll=jssa=&&---=>>,,,=&$oO %h%hhho%",
"%%%%%%hXOo$&=et=&&&&=sssss=zz=ll=jsgj==tt&&&=&>>>>=&$oO %%%%%%ho",
"%%#%%%hXO* .=et=t&&&=========ll=dad==l=eett=&&-:>-=. *O #%#%%%hh",
"#%#%%%%XOo$&=et=ttt&=zzzzzz=xx=fk==fl=f==ee=&&&&;;=&$oO #%#%%%%%",
"%%%%%%%XOo$&=ce=tttv=======zz=f==lll=kfkk===ettt&&=&$oO %%%%%%%%",
"%%%%%%%XOo$&=ce=etv=eeeeebzz===llll=lkkkkll==ceett=&$oO %%%%%%%%",
"%%%%%%%XOo$&=ce=ev=eettt=bb=4lkffl=llllllllll==cee=&$oO %%%%%%%%",
"%%##%%%XO* .=vc=v=cccee=bb=llkffl=xllllllllllll==c=. *O ####%%%%",
"%%%%%%%XOo$&=vc==n=ccc=l==ffffff=xxxxxxxxxxxxxxxx4=6$oO %%%%%%%%",
"%%%%%%%XOo$&=vc=nvn=c=xxx=kkkkk====================6$oO %%%%%%%%",
"#%%%%%%XOo$&=n=nnnvn=zxlll=lll=kajjjax=ll=kllkffdd=6$oO %%%%%%%%",
"#%%%%%%XOo$&========zzxllll=b=kddddfl=llll=klkffff=6$oO %%%%%%%%",
"%%%%%%%XO* .=mMNBBB=zzxllllx=lfffffl=xxxx=d=kkffff=. *O %%%%%%%%",
"%%#%%#%XOo+V=mMNBB=zzzxlllx=lfffffl=zzzz=dsa=kkkk==6+oO #%#%%#%%",
"%%%%%%%XOo+V=mMNNN=bzzxllx=lkkkkkl=zzzz=fggga=kl=f=6+oO %%%%%%%%",
"%%%#%%%XOo+V=mMMMM=bzzxxx=xlllllx=bbbb=fjjjjjd==ff=6+oO %#%#%%%%",
"%%%%#%%XOo+V==mmm=bbzzzz=xlllllx=CCCC==jajjjaa=kkk=6+oO %%%%#%%%",
"%%%%%%%XO* .=Z=AA=bbzzz=zxxxxxz=SSSS=DD=adaaf=llll=. *O %%%%%%%%",
"%%%%%%%XOo+V=ZZ=F=bbbb=========GGGG=HDJJ=ddf=lllll=6+oO %%%%%%%#",
"%#%%%%%XOo+V=KKK=SCCC=kkkkkkkk=LLL=HPPJJJ=f=xxxxxx=6+oO %%%%%%%%",
"%%%%%%%XOo+V=IKK=SSS=lllllllll=UU=HHHPJJJJ=zzzzzz==6+oO %%%%%%%%",
"oo%%%%%XOo+V=II=GGG=C=llllllll===YHHHPPPPPH=zzzz=x=6+oO %%%%%%%%",
"ooo%%%%XO* .=TT=LL=SCb=xxxxxxx===YRYHHHHHHHH=bb=zz=. *O o%o%%%%%",
"%%h%%%%XOo+V=EE=U=GSCbz=zzzzzb=aj=YYYYYWRHHYY==zzz=6+oO h%h%%%%%",
"h%h%%%%XOo+V=Q===LGSCbbb=zzzb=daaa=WYWYWWYWYW=bbbb=6+oO h%h%%%%%",
"hhh%%%%XOo+V==Q=C=GSCCCCC=bb=fddd=l=W!!!!!W!=CCCCC=6+oO h%h%%%%%",
"%%%%%%%XOo+V=~~=SS=SSSSSSS==ffff=lll=W^!!!!=SSSSSS=6+oO %%%%%%%%",
"%%%%%%%XO* .=//=GGG=GGGGGG=kfff=xllll=^^^(=GGGGGGG=. *O %%%%%%%%",
"%#%%%%%XOo+V=))=LLLL=LLLG=lkkk=zxxxxxx=((=LLLLLLLL=6+oO %%%%%%%%",
"%%%%%%%XOo+V=__=LLLLL=UG=llll=zzzzzzzzz==UUUUUUUUU=6+oO %%%%%%%%",
"%%#%%%%XOo+V=``=UUUUUU==xlll=bzzzzzzzzz=UUUUUUUUUU=6+oO #%#%%%%%",
"%%o%%%%XOo+V=''=UUUUUUUxxxx=bbbbbbbbbb=UUUUUUUUUUU=6+oO o%o%%%%%",
"%%o%%#%XO* .=======================================. *O o%o%%#%%",
"%%ooo%%XOo+66666.6666.6666.6666.6666.6666 6666.66666+oO ooooo%%%",
"o%+hoo%XOo+@++++ ++++ ++++ ++++ ++++ $$$$ $$$$ $$$+@+oO +h+hoo%%",
"ho%%+ooXOooooooo*oooo*oooo*oooo*oooo*oooo*oooo*oooooooO %%%%+oo%",
"%h%%%hoXO111111111111111111111111111111111111111111111O %%%%%hoo",
"######oXO*********************************************O ######oo",
"oooooo.XXOOOOOOOOOOOOOOOOOOOOOOOOOOOOOOOOOOOOOOOOOOOOO  oooooo.."
};
