/* XPM */
static char *_0864_faba6b011dcff4bc4465336b1d5c15a3543b6b45acd81fe6ae971e9e93f00a5b[] = {
/* columns rows colors chars-per-pixel */
"64 64 62 1 ",
"  c #980088",
". c #646464",
"X c gray33",
"o c #484848",
"O c gray22",
"+ c #202020",
"@ c #2C2C2C",
"# c #A86840",
"$ c #FC9C60",
"% c #885830",
"& c #483818",
"* c #744C28",
"= c #D08050",
"- c #DC8854",
"; c #FCB080",
": c #FCA470",
"> c #F0945C",
", c #A0643C",
"< c #C87C4C",
"1 c #E88C58",
"2 c #BC7848",
"3 c gray44",
"4 c black",
"5 c #9C6038",
"6 c #80502C",
"7 c #B47044",
"8 c #FCB890",
"9 c #6C4824",
"0 c #5C4020",
"q c #543C1C",
"w c #905C34",
"e c #989898",
"r c #403018",
"t c gray11",
"y c #BC0000",
"u c #A40000",
"i c #700000",
"p c #B00000",
"a c #7C0000",
"s c #880000",
"d c #580000",
"f c #008484",
"g c #007070",
"h c #28200C",
"j c #005858",
"k c #302410",
"l c #382C14",
"z c #FCA85C",
"x c #848400",
"c c #706C00",
"v c #585400",
"b c #404000",
"n c #4C0000",
"m c #000034",
"M c #00001C",
"N c #000040",
"B c #00002C",
"V c #280040",
"C c gray25",
"Z c gray36",
"A c #4C4C4C",
"S c white",
/* pixels */
"                                                                ",
"                                                                ",
"                                                                ",
"                                                                ",
"                                                                ",
"                                                                ",
"                                                                ",
"                                                                ",
"                                                                ",
"                                                                ",
"                                                                ",
"                           .XXooOOO                             ",
"                          oXXoooOOO+                            ",
"                         XOOO@@@OOoO+                           ",
"                         o#$%&++@@O*+                           ",
"                         o=$$$$$-%+#+                           ",
"                         o=;:$$$$;>,+                           ",
"                         O<%,1:>;,%,+                           ",
"                         %234@56@+35%                           ",
"                         7$;8;:-;8;=7                           ",
"                         %$$$$;-$$$=%                           ",
"                          =2>2662>2%                            ",
"                          =7>2++2>76                            ",
"                          =<>#%%#><6                            ",
"                         45<::;:$$<94                           ",
"                        ,46<--27--#&40                          ",
"                   ,,+++,445669999944000***9                    ",
"                 %%##@@@,444q1#wqq444000*%%%9q                  ",
"               ,,##%,&@@*,4e444444340000*%%*00q                 ",
"              ,,#75%,6++r,94e4444340000*%%%%699q                ",
"             ,,#7#w%7,ttt5,*44*r4400*%%%%%*67%69q               ",
"            ,yuuiw9q,7&tt055,,%q9%%77#,5%%*0w755pua             ",
"            yuuuui90%77ttt05,59q5557****&090ww7ysssd            ",
"           yoooOOad&r%7&tttr9*qq5559q&&&&090*wyofgo@d           ",
"          yfgOOOOfg&r0%%&httr9qq%%%,*w0*r0r&0yXf4+jO@d          ",
"          f4+jOOf4+jrr999&httkrq***,*w0*r&h&&Xog+OjOo@          ",
"         og++j@Og++j090900&htttkl&00&&rrlrh+oXoojj@Ooo@         ",
"         oOjj+44Ojj+ 690000&kttttkl&0qqlhhh4fgoo44Oofg@         ",
"         oOO@4444O@@  6&&llllllhhtttkllhhh f4+j444+f4+j         ",
"         oOfgO44OfgO  @@++++4zxxc444444444 g+OjO++og+Oj         ",
"         of4+jOOf4+j  @@++++4ccvb444444444  jj@Ofgoojj+         ",
"          g++j@Og++j  +&000999q&4444444444   OOf4+jOo@          ",
"          ajj+@OOjj   0000099660khkkkkkkkkk  aog+OjO@n          ",
"          pn@@OOOnn  000&&qqq009hhkllkkkkkk  paOjj+@nn          ",
"            =999q    0&&0000999rhhkklkkkkkk    %0qqr            ",
"            500qq    &0000009999&kkkkkkkkkk    #000r            ",
"             +++     000000999990khhhhht444     +++             ",
"                     000099999990llllkkkhhh                     ",
"                     999%%%%%%690lrrlkkhhhk                     ",
"                     9%,,#,,,#,60lrrlkkhhkk                     ",
"                     %,5%*www*%5%9rllkhhhk                      ",
"                    9,%%9*66669%%9rllkhhhk                      ",
"                    9%0&9666660099rrrllkkkk                     ",
"                     r&&996669*94hhhhhhhhhk                     ",
"                      lqqqqqqq&h44hhhhhhhh                      ",
"                      mlllllllh+444444444                       ",
"                      mm444444444MM44444                        ",
"                       mNmNmM44444444444                        ",
"                       mNNmBM444MBMMM4444                       ",
"                       444444444MBM444444                       ",
"                        4MMMM444 M4444444OOOooooXXX             ",
"                       4mNVNmMM44.XXoCOOOOOOOOOOOOOOoZ..        ",
"                  ..ZXo4mNNNmM444XXoCOO@@@@@@@@@@@@@@AZ.        ",
"                   .ZXo4444444444@OOOOOOOOOOOOOOOOOCAZ          "
};
