/* XPM */
static char *_095_9a6b758b89ef10b51a2d78e7b3ef142dab4f5826808aace5bd58e3f1ac8e87a9[] = {
/* columns rows colors chars-per-pixel */
"64 64 53 1 ",
"  c #980088",
". c gray33",
"X c #484848",
"o c gray22",
"O c #202020",
"+ c #2C2C2C",
"@ c #F0945C",
"# c #A0643C",
"$ c #744C28",
"% c #FC9C60",
"& c #DC8854",
"* c #D08050",
"= c #FCA470",
"- c black",
"; c #9C6038",
": c #B47044",
"> c #FCB080",
", c #A86840",
"< c #980000",
"1 c #848400",
"2 c #646464",
"3 c #D40000",
"4 c #9C9C00",
"5 c #700000",
"6 c #C87C4C",
"7 c #905C34",
"8 c gray11",
"9 c #B4AC00",
"0 c #A40000",
"q c #282828",
"w c #640000",
"e c #FCB890",
"r c #400000",
"t c #706C00",
"y c #80502C",
"u c #BC7848",
"i c #6C4824",
"p c #B4B4B4",
"a c #7C0000",
"s c #585400",
"d c #880000",
"f c #580000",
"g c #4C0000",
"h c #B00000",
"j c #404000",
"k c #FC4040",
"l c #FC0000",
"z c #FCF85C",
"x c #FC7C7C",
"c c #FCD8D8",
"v c gray36",
"b c #4C4C4C",
"n c white",
/* pixels */
"                                                                ",
"                                                                ",
"                                                                ",
"                                                                ",
"                                                                ",
"                                                                ",
"                                                                ",
"                                                                ",
"                                                                ",
"                                                                ",
"                                                                ",
"                                                                ",
"                                                                ",
"                              .XXXooO                           ",
"                            .+OO++oXoO                          ",
"                            XO@#OO+X$O                          ",
"                           +X#%%%%%O&O+                         ",
"                           +o*===@==*O+                         ",
"                           o+&O-;;OX*Oo                         ",
"                           X:=>%=&%>=,X                         ",
"                           .,@%@,,@%@;.                         ",
"     O<1                   2 :%&OO&%: 2                         ",
"     O341O                <5 :%6776%: <5                  15O   ",
"     O344O8Oo+            55-7%=>=%%7-55           o+O8OO190O   ",
"     O011O8O++8OoqO      Oww-,&e%%e%,-rr     OOo+OO++O8OO440O   ",
"     O<ttO8O+88O+q8OOOqqqq<<-+y7uu7i+-rrqqqqqqq+8OO++O-OO11<O   ",
"     O<ttO8Oq8-O+88-OOOOqq55<p++++++p-55qqqqqOO+8-Oq8O-OO1t<8   ",
"     OatsO8Oq8-Oq88-OOO888wwa-+oyyo+OwwwOOOOOOOq8-Oq88-88ttd8   ",
"     8ass88OO8-Oq88-888888wfw8&o&:o&+wfg8888888q8-8888-88tsa8   ",
"     85ss88888-8888-888--8ffwd&hhh&h+wfg88----888-8888-88ts58   ",
"     8gjs88888--88---8----fwwdhhkll&+wwg88------8--88--88sjw8   ",
"     88ws88-88--8---------fwwdhkzxkl+wwf8------8---88-888sw-    ",
"      8wsj8--8---8---- ---fww+hxxcxldwwf8-- -------88-88jjw-    ",
"      -rjs-----------  ---fww+dkxxk<dwwf---  ------8----sjr-    ",
"      --rj---------    ---fwwOddll<+dwwf---   ----8-----jr--    ",
"       -rj-------      ---ffwOOdyyydwwwf---    --------jr--     ",
"       --rj---         ---ffw8Od+y+dOwwg---      -----jr---     ",
"        ---            ---gff-8Ow+wO-wfg---         ------      ",
"                       ---ggf8-8OrO88wfg---            --       ",
"                       ---ggf-8-888-8ffr---                     ",
"                       ---ggg8-8-8-8-fgr---                     ",
"                       ---ggg---8-8--fgr---                     ",
"                        --ggg--------ggr---                     ",
"                        --grg--------grr--                      ",
"                        --grg--------grr--                      ",
"                        --grg--------grr--                      ",
"                        --grr--------rrr--                      ",
"                        --grr--------rrr--                      ",
"                        --grr--------rrr--                      ",
"                        --gXr--------ror--                      ",
"                        --Xro--------oro--                      ",
"                        --+X+--------OoO--                      ",
"                        --XrX--------oro--                      ",
"                        --gor--------ror--                      ",
"                        --grr--------rrr--                      ",
"                        ------------------                      ",
"                         -----------------                      ",
"                         -----------------                      ",
"                         ----------------                       ",
"                         ----------------                       ",
"                          --------------                        ",
"              22v...bbXXXXX------------XXXXXXXXXXXXXXbb..vv22   ",
"                       2v..bbXXXXXXXXXbb..v2                    ",
"                                                                "
};
