/* XPM */
static char *_701_8a544656521ff309a798102b3b1f6cc08efd23863f0b493e6738f50e27564f6c[] = {
/* columns rows colors chars-per-pixel */
"64 65 22 1 ",
"  c #980088",
". c #989898",
"X c #7C7C7C",
"o c #646464",
"O c #B4B4B4",
"+ c gainsboro",
"@ c gray55",
"# c gray66",
"$ c #D0D0D0",
"% c #004040",
"& c #C0C0C0",
"* c #484848",
"= c gray33",
"- c gray22",
"; c black",
": c #009C9C",
"> c #007070",
", c #008484",
"< c #005858",
"1 c #00B4B4",
"2 c #00CCCC",
"3 c white",
/* pixels */
"                                                                ",
"                                                                ",
"                                                                ",
"                                                                ",
"                                                                ",
"                                                                ",
"                                                                ",
"                                                                ",
"                                                                ",
"                                                                ",
"                                                                ",
"                                                                ",
"                                                                ",
"                                                                ",
"                                                                ",
"                                                                ",
"                                                                ",
"                                                                ",
"                                                                ",
"                                                                ",
"                                                                ",
"                                                                ",
"                                                                ",
"                                                                ",
"                                                                ",
"                                                                ",
"                                                                ",
"                                                                ",
"                                                                ",
"                                                                ",
"                                                                ",
"                                                                ",
"                                                                ",
"                                                                ",
"                                                                ",
"                                                                ",
"                                                                ",
"                                                                ",
"                                                                ",
"                                                                ",
"                                                                ",
"                                                                ",
"                                                                ",
"                                                                ",
"                                                                ",
"                                                                ",
"                                                                ",
"                                  .XoX...                       ",
"             O+       OOOO OOOOOOOXoooooo@OOO##.                ",
"            O#OOOOOOOO$$$$%$$$$$$$$&&&&&&&&&&&&O.               ",
"            XXXXXXXXXX@...*...............@@@@XXX               ",
"            ==============%=====================%               ",
"                      ---- -----------------;;;%                ",
"                           :>:>:,<  %%  ;%%%;=;;%               ",
"                           1>2>2>%   %%%%% %;;;;;<>             ",
"                           1:2::>%          %;;;;;<             ",
"                          12222<%            %;;;;%             ",
"                         >>>>>>,%            %;;;%%             ",
"                         %%%%%%%%             %%%%              ",
"                                                                ",
"                                                                ",
"                       ooooooo======oooooooooooo=====oo         ",
"                  oooooo====***----*************-----*=oo       ",
"                         oooooo=======================oo        ",
"3333333333333333333333333333333333333333333333333333333333333333"
};
