/* XPM */
static char *_8647_d01be3121c60c467d4ad6098d604e7fb300a9dca084d5bbd31ea01de553035d0[] = {
/* columns rows colors chars-per-pixel */
"64 64 37 1 ",
"  c #980088",
". c #BC7848",
"X c #E46C00",
"o c #FC8820",
"O c #C87C4C",
"+ c #CC6000",
"@ c gainsboro",
"# c #A86840",
"$ c #9C6038",
"% c #D0D0D0",
"& c gray44",
"* c #B4B4B4",
"= c #00B4B4",
"- c #ECECEC",
"; c #9C4C00",
": c gray55",
"> c #7C7C7C",
", c #00CCCC",
"< c #00FCFC",
"1 c #C0C0C0",
"2 c #885830",
"3 c #049800",
"4 c #00D400",
"5 c #048800",
"6 c black",
"7 c #008484",
"8 c #744C28",
"9 c #04BC00",
"0 c #00FC00",
"q c #04B000",
"w c #009C9C",
"e c #005858",
"r c #00E4E4",
"t c gray33",
"y c #007070",
"u c #646464",
"i c white",
/* pixels */
"                                                                ",
"                                                                ",
"                                                                ",
"                                                                ",
"                                                                ",
"                                                                ",
"                                                                ",
"                                                                ",
"                                                                ",
"                                                                ",
"                                                                ",
"                                                                ",
"                                                                ",
"                                                                ",
"                                                                ",
"                                                                ",
"                                                                ",
"                                                                ",
"                                                                ",
"                                                                ",
"                                                                ",
"                                                                ",
"                                                                ",
"                                                                ",
"                                                                ",
"                                                                ",
"                                                                ",
"                                                                ",
"                                                                ",
"                                                                ",
"                                                                ",
"                                                                ",
"                                                                ",
"                                                                ",
"                                                                ",
"                                                                ",
"                                                                ",
"                                                                ",
"                                                                ",
"                                                                ",
"                                                                ",
"                                                                ",
"                                                                ",
"                                                                ",
"                                                                ",
"                                                                ",
"                                                                ",
"                                                                ",
"                                                                ",
"                                                                ",
"                                                                ",
"                                                                ",
"                                                                ",
"                                                                ",
"                                                                ",
"                        .XXX..                                  ",
"                       XXooO++++.      @                        ",
"                       XoooO#$$$+++%%%@&*                       ",
"                   ===%--%X##$$$$$;:::::>                       ",
"                 =,<<%-%-1122222234445566                       ",
"                =,<=7%%11::8888888990q066we                     ",
"                =,r<1---1%::t3q444055556wwyeuu                  ",
"                 =,,,,==wwwww777777yyyy7yyettuu                 ",
"                    eeeeeeeeeeeeeeeeeeeeetttuu                  "
};
