/* XPM */
static char *_8880_5474cb69f5bca5aed631e0e7888e24113ba0bb21f69e63644371e2b9e3f878b9[] = {
/* columns rows colors chars-per-pixel */
"64 64 28 1 ",
"  c #980088",
". c #B4B4B4",
"X c gray99",
"o c gray55",
"O c gainsboro",
"+ c gray66",
"@ c #7C7C7C",
"# c gray33",
"$ c #C0C0C0",
"% c #9C6038",
"& c #A86840",
"* c #744C28",
"= c #D08050",
"- c #C87C4C",
"; c #BC7848",
": c #B47044",
"> c #A0643C",
", c #885830",
"< c #80502C",
"1 c #6C4824",
"2 c #5C4020",
"3 c #382C14",
"4 c #905C34",
"5 c #646464",
"6 c #403018",
"7 c #2C2C2C",
"8 c #484848",
"9 c white",
/* pixels */
"                                                                ",
"                                                                ",
"                                                                ",
"              .      .      .      .      .      .              ",
"             .Xo    .Xo    .Xo    .Xo    .Xo    .Xo             ",
"             OX+    OX+    OX+    OX+    OX+    OX+             ",
"            .OX+@  .OX+@  .OX+@  .OX+@  .OX+@  .OX+@            ",
"            .OO+@  .OO+@  .OO+@  .OO+@  .OO+@  .OO+@            ",
"             @##    @##    @##    @##    @##    @##             ",
"             O+#    O+#    O+#    O+#    O+#    O+#             ",
"             O$#    O$#    O$#    O$#    O$#    O$#             ",
"             %&*    %&*    %&*    %&*    %&*    %&*             ",
"             %&*    %&*    %&*    %&*    %&*    %&*             ",
"             %&*    %&*    %&*    %&*    %&*    %&*             ",
"             %&*    %&*    %&*    %&*    %&*    %&*             ",
"             %&*    %&*    %&*    %&*    %&*    %&*             ",
"             %&*    %&*    %&*    %&*    %&*    %&*             ",
"             %&*    %&*    %&*    %&*    %&*    %&*             ",
"             %&*    %&*    %&*    %&*    %&*    %&*             ",
"             %&*    %&*    %&*    %&*    %&*    %&*             ",
"             %&*    %&*    %&*    %&*    %&*    %&*             ",
"             %&*    %&*    %&*    %&*    %&*    %&*             ",
"             %&*    %&*    %&*    %&*    %&*    %&*             ",
"             %&*    %&*    %&*    %&*    %&*    %&*             ",
"             %&*    %&*    %&*    %&*    %&*    %&*             ",
"             %&*    %&*    %&*    %&*    %&*    %&*             ",
"             %&*    %&*    %&*    %&*    %&*    %&*             ",
"             %&*    %&*    %&*    %&*    %&*    %&*             ",
"             %&*    %&*    %&*    %&*    %&*    %&*             ",
"             %&*    %&*    %&*    %&*    %&*    %&*             ",
"             %&*    %&*    %&*    %&*    %&*    %&*             ",
"             %&*    %&*    %&*    %&*    %&*    %&*             ",
"             %&*    %&*    %&*    %&*    %&*    %&*             ",
"             %&*    %&*    %&*    %&*    %&*    %&*             ",
"             %&*    %&*    %&*    %&*    %&*    %&*             ",
"             %&*    %&*    %&*    %&*    %&*    %&*             ",
"             %&*    %&*    %&*    %&*    %&*    %&*             ",
"             %&*    %&*    %&*    %&*    %&*    %&*             ",
"             %&*    %&*    %&*    %&*    %&*    %&*             ",
"             %&*    %&*    %&*    %&*    %&*    %&*             ",
"             %&*    %&*    %&*    %&*    %&*    %&*             ",
"      =====--------;;;;;;;;;::::::::::::::::::::::::::::::      ",
"      ;&&&&&&&&&&&&&>>>>>>>>>>>>%%%%%%%%%%%%%%%%%%%%%%,,,<      ",
"      <<<<<<<<<<<<<<<<<<<<<<<<<<<<<<<<<<111111111111111111      ",
"         &<2 *23    *23    *23    *23    *23    *23 <<2         ",
"         &<2 *43    *43    *43    *43    *43    *43 <<2         ",
"         ;4* %&2    %&2    ,&2    ,&2    ,&2    ,&2 <41         ",
"         ;&* %&*    %&*    %&*    ,&*    ,&*    ,&* 441         ",
"         ;&* %&*    %&*    %&*    %&*    %&*    ,&* 441         ",
"         ;&* %&*    %&*    %&*    %&*    %&*    %&* 441         ",
"         ;&* %&*    %&*    %&*    %&*    %&*    %&* &41         ",
"         ;&* %&*    %&*    %&*    %&*    %&*    %&* &41         ",
"         ;&* %&*    %&*    %&*    %&*    %&*    %&* &41         ",
"         ;&* %&*    %&*    %&*    %&*    %&*    %&* &41         ",
"         ;&* %&*    %&*    %&*    %&*    %&*    %&* &41         ",
"         ;&* %&*    %&*    %&*    %&*    %&*    %&* &41         ",
"         ;&* %&*    %&*    %&*    %&*    %&*    %&* &41         ",
"         ;&* %&*    %&*    %&*    %&*    %&*    %&* &41         ",
"       =====-------;;;;;::::::::::::::::::::::::::::::::%       ",
"       =&&&&&&&&&&&&&&&&&&&&&%%%%%%%%%%%%%%%%%%%%4444444,       ",
"       ;&&&&&&%%%%%%%%%%%%%%%%%%%%%%%%4444444444444444441       ",
"       <<<<<<<<<<<<<1111111111111111111111111111222222222       ",
"           222225555555555555555555555555555555552666655555555  ",
"          <<*112777777777777777777777777777777777711<<177788##5 "
};
