/* XPM */
static char *_185_223e1f1e618a5d060922637da9aa552b41ad8a6ce8cc29923b73a43bd779ac8f[] = {
/* columns rows colors chars-per-pixel */
"64 64 29 1 ",
"  c #980088",
". c #CCC400",
"X c #E4D800",
"o c #FCF400",
"O c #FCFC54",
"+ c #FCFC7C",
"@ c #848400",
"# c #9C9C00",
"$ c #B4AC00",
"% c gray99",
"& c #A85400",
"* c #FCFC9C",
"= c #FCFCD8",
"- c #585400",
"; c #FC7C7C",
": c #FC9C9C",
"> c #C80000",
", c #980000",
"< c #7C0000",
"1 c #FCFCB8",
"2 c #706C00",
"3 c #404000",
"4 c #FCF85C",
"5 c #FCF420",
"6 c #646464",
"7 c gray22",
"8 c #484848",
"9 c gray33",
"0 c white",
/* pixels */
"                                                                ",
"                                                                ",
"                                                                ",
"                                                                ",
"                                                                ",
"                                                                ",
"                                                                ",
"                                                                ",
"                                                                ",
"                                                                ",
"                                                                ",
"                                                                ",
"                                                                ",
"                                                                ",
"                                                                ",
"                                                                ",
"                                                                ",
"                                                                ",
"                                                                ",
"                                                                ",
"                                                                ",
"                                                                ",
"                                                                ",
"                                                                ",
"                                                                ",
"                                                                ",
"                                                                ",
"                                                                ",
"                                                                ",
"                                                                ",
"                                                                ",
"                                                                ",
"                                                                ",
"                                                                ",
"                                                                ",
"                                                                ",
"                                                                ",
"                                                                ",
"                                                                ",
"                                                                ",
"                                                                ",
"                                                                ",
"                                                                ",
"                                                                ",
"                                                                ",
"                                                                ",
"                                                                ",
"                                                                ",
"                             .XXooOOO                           ",
"                           +@#$XoooOO%&                         ",
"                           *%%=*OOoo#@-                         ",
"                           ;%:=;O>o,#<-                         ",
"                            *X1XO$o2#3                          ",
"                            O+1*OoX#@-                          ",
"                             O41oX#@-                           ",
"                              .$@--3                            ",
"                               ..@3                             ",
"                               5.@3                             ",
"                              @%O.@3                            ",
"                               @@@3                             ",
"                              O%O@.-   6666666                  ",
"                            #1%1*O@X@-77788996                  ",
"                            #.555X$$#999999966                  ",
"                                                                "
};
