/* XPM */
static char *_1085_ee5ed7ed497346506ac9f284963f71316decff619c7fba2f7b13f48a81a8890d[] = {
/* columns rows colors chars-per-pixel */
"64 65 42 1 ",
"  c #980088",
". c #FC0000",
"X c #E46C00",
"o c #CC6000",
"O c #9C4C00",
"+ c #FC5C5C",
"@ c #880000",
"# c #B45400",
"$ c #ECECEC",
"% c gainsboro",
"& c gray55",
"* c #D0D0D0",
"= c #484848",
"- c #FC9840",
"; c #FCA85C",
": c #989898",
"> c gray33",
", c gray44",
"< c #FC8820",
"1 c #FC7800",
"2 c #A85400",
"3 c #543C1C",
"4 c #744C28",
"5 c #403018",
"6 c #6C4824",
"7 c #483818",
"8 c #382C14",
"9 c #5C4020",
"0 c #885830",
"q c #905C34",
"w c #A0643C",
"e c #B47044",
"r c #9C6038",
"t c #C87C4C",
"y c #BC7848",
"u c #646464",
"i c #80502C",
"p c #A86840",
"a c gray22",
"s c #202020",
"d c black",
"f c white",
/* pixels */
"                                                                ",
"                                                                ",
"                                                                ",
"                                                                ",
"                                                                ",
"                                                                ",
"                                                                ",
"                                                                ",
"                                                                ",
"                                                                ",
"                                                                ",
"                                                                ",
"                                                                ",
"                                                                ",
"                                                                ",
"                                                                ",
"                                                                ",
"                                                                ",
"                                                                ",
"                                                                ",
"                                                                ",
"                                                                ",
"                                                                ",
"                                                                ",
"                                                                ",
"                                                                ",
"                                                                ",
"                                                                ",
"                                                                ",
"                                                                ",
"                                                                ",
"                               .   .                            ",
"                               .   .                            ",
"        Xo       Xo            .   .       XO       XO          ",
"        XO       XO            .. +@       XO       XO          ",
"        XO#######oO            .@ +@       XO#XXXXXXXO          ",
"        XOOOOOOOO#O            .$%&@       XOOooooooXO          ",
"        XO       #O            **&==       XO       XO          ",
"        XO      --;;;;;;;;;;;;*$:&>=,;;;;;;;;;;;;--<XO          ",
"        XO  1<---------------------------------------1X2        ",
"        XO  XXX11<<<<<<<<<<<<<<<<<<<<<<<<<<<<<<11XXo###2        ",
"        XO    oooooo#####OOOOOOOOOOOOOOOOOOOOOOOOOOOO3          ",
"        XO       XOOOOOOOOOOOOOOOOOOOOOOOOOOOOOOO   43          ",
"        XO#######oO           5677788      43444444443          ",
"        XOOOOOOOO#O            44433       43444444443          ",
"        XO       #O             995        43       43          ",
"        XO       oO             095        43       43          ",
"        XO       XO             095        43       43          ",
"        XXXXXXXXXXXXoooo        095  ####qqqqqqqqqqqq3          ",
"        XXXXXXXo#########       w95 Xoo######qqqqqqq43          ",
"        Xo####X6666666666       w45 XOOOOOOOOO44444443          ",
"        Xo6   X6 07    O6       w45 XO     03O4    O43          ",
"        X#6   X6 07    O6       e47 XO     03O4    O43          ",
"        X#6   X6 07    O6       e47 XO     03O4    O43          ",
"        X#6   X6 07    O6       e47 XO     03O4    O43          ",
"       oXO6   X6 07    O6       e47 XO     03O4    #43r         ",
"       oXXXXXXX6666666666      tyq69XOOOOOOOOO44444443r         ",
"       oo60   X6q07    O6 rtttrqr69966666  03O4    #430         ",
"       Xo60uu>X6q07>>>>Orttrqi66tpi7999993303O4>>>>>430>>>>>u   ",
"       X#6aaaaX6aaaaaaattri67777ypi7777799933O4aaaaa933aaaaa>u  ",
"          uu>>#6aaaaettri63iaa==p06==>=77799933ssssssssssa>uu   ",
"                    ri563i>>=aayyq06sssss779593ddddddddda>uu    ",
"                    i667issssssr6665ssssss77933ssssssssssa=>u   ",
"                               i7775aaaaaaaaaaaaaaaaaaa=>>uu    ",
"ffffffffffffffffffffffffffffffffffffffffffffffffffffffffffffffff"
};
