/* XPM */
static char *_3411_f2ac7400317c4325568de75d01deef752340a4830975b419961550f585fafafc[] = {
/* columns rows colors chars-per-pixel */
"65 65 38 1 ",
"  c #980088",
". c #848400",
"X c #706C00",
"o c white",
"O c #9C9C00",
"+ c #B4AC00",
"@ c #CCC400",
"# c #FCFC54",
"$ c #B4B4B4",
"% c #FCF400",
"& c gray99",
"* c gainsboro",
"= c gray55",
"- c #C0C0C0",
"; c #ECECEC",
": c #646464",
"> c #7C7C7C",
", c gray66",
"< c #585400",
"1 c #D0D0D0",
"2 c gray44",
"3 c #989898",
"4 c gray22",
"5 c #202020",
"6 c gray33",
"7 c #484848",
"8 c #044000",
"9 c #2C2C2C",
"0 c #046400",
"q c #048800",
"w c #045800",
"e c #047C00",
"r c #04A400",
"t c #049800",
"y c #04B000",
"u c #044C00",
"i c #047000",
"p c #04BC00",
/* pixels */
"                             ...XX                              o",
"                            O+OX+OX                             o",
"                           +@O   +OX                            o",
"                           @#@ @ @+X                            o",
"                            @#@#X@X                             o",
"                             X@#XXX                             o",
"                            ##@X$.@%%                           o",
"                          &*=.-&&**-#%                          o",
"                         ;$:$..*&&-@@%                          o",
"                        *&>:..*&*::.@.                          o",
"                        &*,  --*-,.<<                           o",
"                             ->    $=                           o",
"                             ->    ;1                           o",
"                             ->    ;1                           o",
"                             ->    ;1                           o",
"                           111,>   ;1                           o",
"                          1&&&*-,  1;1                          o",
"                         1&&&&&*,  $;1                          o",
"                         &&&1&&-,  1;1                          o",
"                         &&,213>>> ;;                           o",
"                         1*24;;3=> ;;                           o",
"                          =-&&32>:,;1                           o",
"                           **1& >:,;1                           o",
"                            &&,>--*1$                           o",
"                            $$>--*,$3                           o",
"                           ,$113>>13:                           o",
"                           -;&&;**>2                            o",
"                           ,3-;,>>$>:                           o",
"                           -;&&;*->=                            o",
"                            3-;,>>$:2                           o",
"                            -*&*--==                            o",
"                              *  ,=:                            o",
"                                 *,:                            o",
"                                >,=>5                           o",
"                              **,**=55                          o",
"                            2*-=*$6555                          o",
"                            7+++774558                          o",
"                            7...744980                          o",
"                             <<<788008                          o",
"                            qw0eeeee08                          o",
"                            rqwrttre88                          o",
"                            ryeq0rew88                          o",
"                            rqw0uitei8                          o",
"                             qwq0rri8                           o",
"                            trerei0w88                          o",
"                            r0trrr5i88                          o",
"                             re0er8i88                          o",
"                             e00qt0te8                          o",
"                             r eii4we                           o",
"                             r tri6wu8                          o",
"                             r rti:i08                          o",
"                             p tei>ey                           o",
"                               6ri=e88                          o",
"                               =r63>                            o",
"                               pq6,>6                           o",
"                               -3-*->                           o",
"                               -3-*>6                           o",
"                              ,--*,                             o",
"                              ---*,                             o",
"                              3-*,>                             o",
"                                33                              o",
"                                  ::66666666::                  o",
"                               :67499999994776:                 o",
"                             ::67499999994476:                  o",
"ooooooooooooooooooooooooooooooooooooooooooooooooooooooooooooooooo"
};
